<svg width="83" height="120" viewBox="0 0 83 120" fill="none" xmlns="http://www.w3.org/2000/svg">
<path d="M43.3497 7.43481H40.9062V86.4805L43.3497 87.5672V7.43481Z" fill="#09602F"/>
<path d="M50.9831 84.8504L48.2366 86.2539V44.3753L73.6758 27.3625L75.0341 29.3935L50.68 45.6807L50.9831 84.8504Z" fill="#09602F"/>
<path d="M36.2987 83.7637L33.8553 82.9004V45.6807L9.50122 29.3935L10.8593 27.3625L36.2987 44.3753V83.7637Z" fill="#09602F"/>
<path d="M49.5171 32.2288C49.5171 32.2288 62.2747 36.3893 66.3161 22.4432C66.3161 22.4432 69.0715 14.0082 76.787 14.743C76.787 14.743 49.4158 1.5016 47.0278 30.0742C47.0278 30.0742 50.4772 19.8714 60.8497 18.2786C60.8497 18.2786 51.1305 22.7644 49.5173 32.2287L49.5171 32.2288Z" fill="#09602F"/>
<path d="M35.0188 32.2288C35.0188 32.2288 22.2613 36.3893 18.2199 22.4432C18.2199 22.4432 15.4643 14.0082 7.74902 14.743C7.74902 14.743 35.1202 1.5016 37.5082 30.0742C37.5082 30.0742 34.0588 19.8714 23.6863 18.2786C23.6863 18.2786 33.4055 22.7644 35.0187 32.2287L35.0188 32.2288Z" fill="#09602F"/>
<path d="M27.2698 61.6265C27.2698 61.6265 14.5123 65.787 10.4709 51.8409C10.4709 51.8409 7.71546 43.4059 0 44.1407C0 44.1407 27.3712 30.8993 29.7591 59.4719C29.7591 59.4719 26.3096 49.2691 15.9372 47.6763C15.9372 47.6763 25.6565 52.1621 27.2697 61.6264L27.2698 61.6265Z" fill="#09602F"/>
<path d="M54.8775 61.6265C54.8775 61.6265 67.635 65.787 71.6765 51.8409C71.6765 51.8409 74.432 43.4059 82.1473 44.1407C82.1473 44.1407 54.7762 30.8993 52.3882 59.4719C52.3882 59.4719 55.8376 49.2691 66.2101 47.6763C66.2101 47.6763 56.4908 52.1621 54.8776 61.6264L54.8775 61.6265Z" fill="#09602F"/>
<path d="M42.1286 7.95838C39.9345 7.95838 38.1494 6.17329 38.1494 3.97904C38.1494 1.78479 39.9345 0 42.1286 0C44.3227 0 46.1078 1.78509 46.1078 3.97904C46.1078 6.173 44.3227 7.95838 42.1286 7.95838ZM42.1286 1.95461C41.0122 1.95461 40.104 2.86283 40.104 3.97904C40.104 5.09526 41.0122 6.00362 42.1286 6.00362C43.245 6.00362 44.1532 5.09541 44.1532 3.97904C44.1532 2.86268 43.245 1.95461 42.1286 1.95461Z" fill="#09602F"/>
<path d="M76.7868 30.4723C74.5925 30.4723 72.8076 28.6872 72.8076 26.4933C72.8076 24.2993 74.5927 22.5139 76.7868 22.5139C78.9809 22.5139 80.766 24.299 80.766 26.4933C80.766 28.6875 78.9809 30.4723 76.7868 30.4723ZM76.7868 24.4687C75.6704 24.4687 74.7622 25.3769 74.7622 26.4933C74.7622 27.6096 75.6704 28.5177 76.7868 28.5177C77.9032 28.5177 78.8112 27.6095 78.8112 26.4933C78.8112 25.377 77.903 24.4687 76.7868 24.4687Z" fill="#09602F"/>
<path d="M7.74944 31.2726C5.55534 31.2726 3.77026 29.4875 3.77026 27.2933C3.77026 25.099 5.55534 23.314 7.74944 23.314C9.94354 23.314 11.7286 25.099 11.7286 27.2933C11.7286 29.4875 9.94354 31.2726 7.74944 31.2726ZM7.74944 25.2687C6.63308 25.2687 5.72501 26.1769 5.72501 27.2933C5.72501 28.4097 6.63323 29.3179 7.74944 29.3179C8.86566 29.3179 9.77403 28.4097 9.77403 27.2933C9.77403 26.1769 8.86581 25.2687 7.74944 25.2687Z" fill="#09602F"/>
<path d="M8.88505 68.9654C8.88505 68.9654 9.06171 69.1912 9.23079 69.208C9.23079 69.208 8.76198 68.6931 8.92938 68.2647C8.92938 68.2647 8.95085 68.6349 9.09368 68.7116C9.09368 68.7116 8.96993 68.1879 9.09564 67.8836C9.09564 67.8836 9.09663 68.3813 9.17206 68.5267C9.17206 68.5267 9.02516 67.7954 9.34149 67.4538C9.34149 67.4538 9.1896 68.0013 9.31698 68.2628C9.31698 68.2628 9.28154 67.8519 9.45161 67.7587C9.45161 67.7587 9.48691 68.4105 9.76575 68.6065C10.0446 68.8025 10.1299 69.0624 10.1299 69.0624C10.1299 69.0624 10.3018 68.9899 10.5129 68.825L10.411 68.9805C10.411 68.9805 10.5481 68.8691 10.6892 68.8046C10.6892 68.8046 10.5211 68.9815 10.5235 69.0704C10.5235 69.0704 10.812 68.6726 11.2851 68.5087C11.3136 68.4888 11.3403 68.4704 11.364 68.4545C11.5549 68.3259 11.7776 68.2643 12.4961 68.3022C13.2147 68.34 14.205 68.605 14.7854 68.8833C15.3659 69.1615 16.0194 69.2982 16.0194 69.2982C16.9838 69.4716 17.9547 69.3898 18.7215 69.61C19.5114 69.8367 20.1093 69.2573 20.3824 68.9958C20.6554 68.7344 20.9623 68.2497 21.262 68.0901C21.5618 67.9304 21.7891 67.7764 21.7891 67.7764C21.7891 67.7764 21.6668 67.7559 21.2449 67.5497C20.8231 67.3435 20.6452 67.2167 20.5259 67.0552C20.4065 66.8936 20.3781 66.5389 20.3781 66.5389C20.3781 66.5389 20.7284 67.0451 20.9297 67.0929C21.131 67.1406 21.131 67.1406 21.131 67.1406L21.1073 66.9016C21.1073 66.9016 21.2377 67.2152 21.5544 67.2727C21.8711 67.3302 22.1593 67.5733 22.1593 67.5733C22.1593 67.5733 22.5018 67.5517 22.6959 67.6614C22.8899 67.7711 22.9286 68.0012 23.083 68.0955C23.2373 68.1898 23.6783 68.6578 23.7651 68.8489C23.8518 69.04 24.0439 69.0769 24.0621 69.2411C24.0804 69.4052 24.0953 69.3873 24.0815 69.5216C24.0676 69.6559 24.0067 69.7819 23.9729 69.8285C23.9392 69.8751 23.5669 69.7614 23.483 69.7705C23.3992 69.7796 23.8154 70.0434 23.839 70.1312C23.8625 70.2191 23.6658 70.3967 23.5126 70.4188C23.3593 70.4409 23.0688 70.249 22.8945 70.2307C22.7203 70.2123 22.6952 70.1972 22.6952 70.1972C22.6952 70.1972 22.8881 70.5253 22.953 70.5521C22.953 70.5521 22.72 70.5616 22.5037 70.3022C22.2874 70.0428 22.0404 69.6954 21.9828 69.4977C21.9828 69.4977 22.1159 69.948 22.2402 70.0382C22.2402 70.0382 22.1608 70.011 22.065 70.0671C21.9692 70.1232 21.7589 70.2532 21.7045 70.4158C21.65 70.5783 20.9575 71.3017 20.6169 71.5708C20.2763 71.8399 19.9194 72.1923 19.7761 72.4256C19.6327 72.659 19.4578 73.0081 19.0924 73.2475C18.727 73.4869 18.5203 73.6207 18.372 73.7484C18.2237 73.8761 17.7963 73.7904 17.7531 73.935C17.7099 74.0796 17.7309 74.7858 17.7611 75.0703C17.7913 75.3547 17.6738 75.4031 17.6505 75.6354C17.6273 75.8678 17.4649 77.5522 17.4649 77.5522L17.1048 77.7928C17.1048 77.7928 17.1816 75.9526 17.1652 75.7049C17.1487 75.4571 17.0893 75.1793 17.0873 74.9392C17.0852 74.699 17.0747 74.3495 17.0765 74.2659C17.0783 74.1822 17.2664 73.8989 17.459 73.743C17.459 73.743 16.9824 74.0783 16.5896 74.9065C16.1968 75.7347 16.2336 76.0484 16.128 76.2207C16.0224 76.393 15.8567 76.6513 15.7071 76.8372C15.5575 77.0231 15.4 77.3582 15.3766 77.4304C15.3021 77.6606 15.2364 77.6886 15.2364 77.6886L14.9668 77.4178C14.9668 77.4178 15.088 77.0311 15.1919 76.7715C15.2958 76.5118 15.4492 76.1477 15.4739 75.8499C15.4986 75.5521 15.7025 75.0436 15.7476 74.8117C15.7927 74.5798 15.6998 74.5014 15.882 74.3235C16.0641 74.1455 16.1761 74.017 16.1761 73.8497C16.1761 73.6823 16.1357 73.3649 16.1357 73.3649L16.1079 73.6372C16.1079 73.6372 15.584 73.8077 14.5202 73.708C13.4564 73.6084 13.4466 73.5573 13.2237 73.4324C13.0009 73.3075 12.6532 73.067 12.5608 72.9668C12.4684 72.8665 12.4629 73.6195 12.2651 74.0154C12.0673 74.4112 12.0434 74.6727 12.0418 74.9164C12.0401 75.1601 12.0396 75.8477 12.0889 76.0889C12.1382 76.3301 12.1535 76.6288 12.1931 76.8152C12.2327 77.0016 12.3304 77.3602 12.3304 77.3602L11.694 77.3464C11.694 77.3464 11.5207 76.4512 11.4743 76.0791C11.4279 75.707 11.3272 75.4829 11.3132 75.2898C11.3037 75.1582 11.2305 75.0102 11.1855 74.8935C11.1128 75.1831 10.9845 75.7193 10.9754 75.9342C10.9649 76.1801 10.9076 76.4737 10.901 76.6641C10.8943 76.8545 10.8214 77.4335 10.8214 77.4335L10.1936 77.4192C10.1936 77.4192 10.3365 76.1484 10.3813 75.7761C10.4262 75.4039 10.3827 75.162 10.4158 74.9713C10.4489 74.7805 10.3573 74.5218 10.3869 74.413C10.4166 74.3042 10.4568 74.2812 10.5827 73.9989C10.7086 73.7165 10.8163 73.3764 10.7508 73.1738C10.6854 72.9713 10.5414 72.6003 10.5637 72.5046C10.5637 72.5046 10.5776 72.3931 10.5341 72.1778C10.2564 71.763 10.2515 71.2933 10.2082 70.9851C10.2082 70.9851 9.98032 70.455 10.108 69.8618C9.99313 69.9328 9.80431 70.0245 9.64327 69.9846C9.64327 69.9846 9.83252 69.9264 9.88774 69.8378C9.88774 69.8378 9.58645 69.9895 9.47214 69.8789C9.47214 69.8789 9.64081 69.8905 9.67641 69.7565C9.67641 69.7565 9.34258 69.8953 9.1679 69.7532C9.1679 69.7532 9.46256 69.7068 9.47825 69.5849C9.47825 69.5849 9.13887 69.5985 9.03163 69.3877C9.03163 69.3877 9.20046 69.4622 9.2889 69.4546C9.2889 69.4546 8.97903 69.3869 8.88505 68.9654Z" fill="#09602F"/>
<path d="M28.0663 78.1383C28.0663 78.1383 28.1488 78.756 28.1763 78.8019C28.2038 78.8477 28.5066 78.8294 28.6534 78.8019C28.8001 78.7743 28.8827 78.808 28.9133 78.8599C28.9133 78.8599 28.8643 78.8279 28.7894 78.8599C28.7145 78.892 28.294 78.944 28.2864 79.0021C28.2788 79.0602 28.5616 79.1092 28.612 79.1749C28.6625 79.2407 28.6656 79.3003 28.6656 79.3003C28.6656 79.3003 28.5937 79.2391 28.5035 79.2239C28.4133 79.2086 28.161 79.129 28.0754 79.0695C28.0754 79.0695 27.9684 79.0771 27.947 79.0266C27.9256 78.9762 27.8966 78.889 27.8644 78.9181C27.8323 78.9471 27.8216 78.9716 27.7727 78.9792C27.7238 78.9869 27.7115 78.9792 27.7115 78.9792L27.6886 79.0068C27.6886 79.0068 27.681 78.941 27.6978 78.9135C27.7146 78.886 27.8171 78.8126 27.8491 78.7453C27.8812 78.678 27.8537 78.3708 27.8064 78.2698C27.759 78.1689 27.7498 78.1338 27.7467 78.0573C27.7467 78.0573 27.6993 78.0084 27.6749 77.9366C27.6504 77.8647 27.8262 77.5482 27.8262 77.5482C27.8262 77.5482 27.7009 77.7087 27.681 77.6873C27.6611 77.6659 27.6014 77.5895 27.525 77.5635C27.4486 77.5375 27.415 77.3739 27.3767 77.2944C27.3385 77.2149 27.4027 77.1048 27.4027 77.1048C27.4027 77.1048 27.3416 77.0666 27.2957 77.0551C27.2957 77.0551 27.2453 76.7295 27.2751 76.5552C27.2751 76.5552 27.2126 76.9909 27.2656 77.1629C27.2656 77.1629 27.2017 77.1171 27.181 77.0781C27.181 77.0781 26.5099 77.1415 26.3937 76.6982L26.3356 76.6737C26.3356 76.6737 26.1491 76.955 26.1704 77.2577C26.1704 77.2577 26.1093 76.9489 26.1185 76.7471C26.1185 76.7471 26.0237 77.1629 26.0481 77.2822C26.0481 77.2822 25.883 76.9 25.883 76.6278C25.883 76.6278 25.7821 76.7593 25.7668 76.8449C25.7668 76.8449 25.7515 76.4964 25.8035 76.3496C25.8035 76.3496 25.7485 76.2945 25.7301 76.2884C25.7118 76.2823 25.6873 76.2456 25.6873 76.2456C25.6873 76.2456 25.3051 76.4963 25.2714 76.5605C25.2714 76.5605 25.2072 76.5942 25.1766 76.5391C25.146 76.4841 25.3081 76.2578 25.3081 76.2578C25.3081 76.2578 24.9137 76.5147 24.8342 76.7165C24.8342 76.7165 24.7975 76.5269 24.8831 76.3373C24.9687 76.1478 25.0024 76.0897 24.9748 76.0805C24.9473 76.0713 24.8586 76.1691 24.8586 76.1691L24.8264 76.0499L24.8066 76.1202C24.8066 76.1202 24.7226 75.4888 25.2684 75.1127C25.2684 75.1127 24.7501 75.3695 24.7363 76.0988C24.7363 76.0988 24.1538 75.5805 25.2408 74.6953C25.2408 74.6953 24.6858 75.0531 24.5299 75.5071C24.5299 75.5071 24.3464 74.8971 24.7225 74.2183C25.0987 73.5395 25.5894 73.4156 25.5894 73.4156C25.5894 73.4156 24.8785 73.1909 24.5574 73.8972C24.2364 74.6036 24.2822 74.7228 24.2822 74.7228C24.2822 74.7228 24.14 74.4752 24.3327 73.9064C24.3327 73.9064 24.0832 74.0853 23.9465 74.5439C23.9465 74.5439 23.7364 73.9202 24.2868 73.1679C24.8372 72.4157 25.6766 72.4478 25.6766 72.4478L25.6858 72.3561C25.6858 72.3561 26.3004 72.457 26.6994 73.012C27.0985 73.567 27.0297 73.9477 27.0297 73.9477C27.0297 73.9477 27.0251 74.1632 26.9838 74.4017C26.9425 74.6403 26.9838 74.8925 26.9838 74.8925C26.9838 74.8925 26.7407 75.209 26.6077 75.5255C26.6077 75.5255 26.8049 75.0897 27.1902 74.9246C27.5754 74.7595 28.0341 74.7274 28.0341 74.7274L27.7818 74.7045C27.7818 74.7045 28.0295 74.5302 28.2176 74.333C28.4056 74.1357 28.6717 73.6816 28.8138 73.5074C28.956 73.3331 29.222 73.0946 29.222 73.0946L29.6302 72.8285C29.6302 72.8285 29.2128 73.0946 29.0867 73.0785C28.9606 73.0625 28.8941 72.9776 28.8941 72.8698C28.8941 72.7621 28.8391 72.7024 28.8391 72.7024L28.9583 72.6841C28.9583 72.6841 28.8574 72.5947 28.8574 72.5052C28.8574 72.5052 28.9078 72.5281 29.0363 72.5006C29.1647 72.4731 29.2656 72.496 29.2656 72.496C29.2656 72.496 29.2243 72.4593 29.1395 72.402C29.0546 72.3447 29.0798 72.0832 29.0798 72.0832C29.0798 72.0832 29.2633 72.2575 29.3894 72.2598C29.5155 72.2621 29.3161 71.9594 29.3161 71.9594C29.3161 71.9594 29.5316 71.9915 29.5775 72.0809C29.6234 72.1703 29.7128 72.2644 29.7128 72.2644C29.7128 72.2644 29.6486 72.1612 29.6738 72.0626C29.6991 71.964 29.6853 71.886 29.6325 71.7782C29.6325 71.7782 29.8481 71.8424 29.9077 72.0557C29.9077 72.0557 29.9284 72.1336 30.0178 72.1841C30.0178 72.1841 29.9215 72.0786 29.949 71.9685C29.9766 71.8584 29.9857 71.7988 29.988 71.7231C29.988 71.7231 30.1738 71.8401 30.1852 72.0855C30.1852 72.0855 30.3274 71.9961 30.3182 71.8952C30.3182 71.8952 30.3939 71.9823 30.3985 72.0213C30.3985 72.0213 30.5292 72.0397 30.5636 72.1085C30.598 72.1773 30.5911 72.3172 30.5636 72.3883C30.5636 72.3883 30.6232 72.2805 30.6232 72.1704C30.6232 72.1704 30.7173 72.2966 30.7333 72.4525C30.7493 72.6084 30.6163 72.7323 30.4764 72.7621C30.4764 72.7621 30.6281 72.769 30.7346 72.8561C30.7346 72.8561 30.2838 72.9754 30.1806 73.1932C30.1806 73.1932 30.2494 73.1107 30.3365 73.074C30.3365 73.074 30.3732 73.2208 30.5085 73.4019C30.6438 73.5831 30.6392 73.6404 30.6049 73.7551C30.5705 73.8698 30.481 74.0372 30.3686 74.0394C30.2563 74.0417 30.1141 73.7322 30.0774 73.4088C30.0774 73.4088 30.0866 73.5395 30.0911 73.6014C30.0911 73.6014 29.871 73.5578 29.8595 73.2941C29.8595 73.2941 29.8182 73.5074 30.1003 73.6656C30.1003 73.6656 30.1393 73.8743 30.1898 73.9661C30.2402 74.0578 30.309 74.5715 30.231 74.8605C30.1531 75.1494 30.1095 75.2733 30.0934 75.4384C30.0774 75.6035 30.0613 75.7434 30.0017 76.0094C29.9421 76.2754 29.777 76.5735 29.5637 76.7685C29.3504 76.9634 28.9903 77.3143 28.8092 77.4381L29.1509 77.0414C29.1509 77.0414 28.7519 77.3991 28.573 77.6055C28.3942 77.8119 28.0448 77.9833 28.0663 78.1383Z" fill="#09602F"/>
<path d="M6.35474 78.9932C14.6862 77.9065 33.9572 78.3412 44.3897 88.7737C50.3666 84.4268 66.2895 77.6999 77.7 79.33" stroke="#09602F" stroke-width="3.26014"/>
<path d="M14.0905 82.9939C24.6646 82.9939 34.4127 86.5265 42.2216 92.475C41.3834 93.2071 40.5666 93.9691 39.7741 94.7616C39.6741 94.8615 39.5754 94.9621 39.4766 95.0627C32.3778 89.8147 23.5966 86.7112 14.0905 86.7112C11.368 86.7112 8.7047 86.966 6.12302 87.4525C6.08766 87.0678 6.0572 86.6819 6.03827 86.296C5.99441 85.42 5.99441 84.552 6.03827 83.69C8.65347 83.2329 11.3442 82.9939 14.0905 82.9939ZM14.0581 105.848H14.0904C19.7213 105.848 24.8919 107.82 28.9494 111.11C28.4526 112.343 28.0063 113.596 27.6113 114.867C24.9419 112.392 21.5922 110.641 17.8742 109.925C16.5105 108.652 15.2334 107.287 14.0581 105.848ZM9.35694 98.5868C10.9004 98.3521 12.4811 98.2302 14.0905 98.2302C20.9357 98.2302 27.2657 100.433 32.412 104.168C31.7658 105.24 31.1623 106.335 30.6021 107.451C26.0033 103.995 20.2865 101.948 14.0905 101.948C13.1591 101.948 12.238 101.994 11.3303 102.084C10.6066 100.95 9.94761 99.7816 9.35694 98.5868ZM6.7381 91.3076C9.11921 90.851 11.5771 90.612 14.0905 90.612C22.5864 90.612 30.4448 93.34 36.8389 97.9668C36.0397 98.9202 35.2795 99.9011 34.559 100.906C28.7952 96.7671 21.7281 94.3294 14.0905 94.3294C11.9392 94.3294 9.83245 94.5226 7.78786 94.8933C7.36721 93.7149 7.01484 92.5182 6.7381 91.3076Z" fill="#09602F"/>
<path d="M29.9131 117.755C32.0865 104.728 49.6342 78.6143 78.2718 83.5372C80.882 98.6416 60.1168 128.384 29.9131 117.755Z" fill="#09602F"/>
<path d="M57.3159 105.817C57.2858 105.879 57.2541 105.94 57.221 106C57.5045 105.937 57.7849 105.824 58.0429 105.691C58.7021 105.351 59.3942 104.762 59.6272 104.035C59.5325 104.05 59.4347 104.092 59.3434 104.121C59.2137 104.164 59.0827 104.202 58.9508 104.237C58.5416 104.343 58.1327 104.393 57.7135 104.438C57.7061 104.507 57.6971 104.575 57.6863 104.642C57.6756 104.71 57.6632 104.778 57.6491 104.845C57.6351 104.912 57.6193 104.979 57.6019 105.046C57.5845 105.112 57.5655 105.178 57.5449 105.244C57.5242 105.309 57.502 105.374 57.478 105.438C57.4542 105.503 57.4287 105.567 57.4017 105.63C57.3746 105.693 57.346 105.755 57.3159 105.817Z" fill="#09602F"/>
<path d="M58.927 97.9434C58.8621 97.8476 58.7839 97.7595 58.7096 97.6709C58.0382 96.8706 57.0155 96.2694 56.0096 96.0021C55.9924 95.9992 55.9732 95.9978 55.9589 96.0079C55.8777 96.0654 55.7216 96.3027 55.6529 96.3956C55.122 97.1134 54.8714 97.5262 54.7032 98.416C54.9106 98.3319 55.1115 98.2378 55.322 98.1602C55.3946 98.1337 55.4676 98.1086 55.5412 98.0848C55.6147 98.061 55.6887 98.0387 55.7631 98.0176C55.8375 97.9967 55.9122 97.9772 55.9873 97.9589C56.0624 97.9408 56.1379 97.9241 56.2137 97.9087C56.2894 97.8933 56.3655 97.8794 56.4417 97.867C56.518 97.8545 56.5945 97.8435 56.6711 97.8339C56.7479 97.8243 56.8247 97.8161 56.9017 97.8094C56.9787 97.8027 57.0558 97.7975 57.1329 97.7936C57.7203 97.7459 58.3534 97.8163 58.927 97.9434Z" fill="#09602F"/>
<path d="M53.0082 103.891C53.1002 104.187 53.1203 104.613 52.9731 104.894C53.5045 104.841 54.0098 104.715 54.4984 104.498C54.7161 104.4 55.1304 104.191 55.302 104.046C55.1356 103.992 54.9742 103.925 54.8124 103.859C54.0631 103.554 53.4443 103.187 52.7621 102.76C52.6831 102.861 52.5901 102.946 52.49 103.024C52.7091 103.313 52.8966 103.533 53.0082 103.891Z" fill="#09602F"/>
<path d="M48.2891 103.36C48.1322 103.583 47.9522 103.781 47.783 103.994C47.8423 104.004 47.9035 104.006 47.9636 104.006C48.9346 103.999 50.1728 103.212 50.8384 102.539C50.9205 102.454 50.9991 102.366 51.074 102.275C51.1372 102.197 51.199 102.104 51.2762 102.04C51.3784 101.956 51.5243 101.961 51.6481 101.979C51.718 101.99 51.7777 102.011 51.8395 102.045C52.0138 102.14 52.181 102.269 52.3472 102.379C52.6502 102.578 52.9565 102.772 53.2657 102.962C54.385 103.643 55.6956 104.212 57.0101 104.332C57.4279 104.37 57.8436 104.345 58.2575 104.283C59.7507 104.059 61.1082 103.312 62.2566 102.353C62.5335 102.122 63.5805 101.133 63.5998 100.83C63.606 100.733 63.5554 100.65 63.4946 100.579C63.4117 100.482 63.3112 100.395 63.2168 100.31C63.0073 100.118 62.789 99.9367 62.5617 99.7663C61.1451 98.6919 59.5911 98.0218 57.8051 97.8898C57.5346 97.8642 57.2409 97.8801 56.9702 97.903C55.5738 98.0209 54.4434 98.595 53.26 99.2955C53.0196 99.4391 52.7803 99.5847 52.5422 99.732C52.4035 99.8167 52.2584 99.9179 52.1087 99.9803C51.9461 100.048 51.7366 100.086 51.5611 100.076C51.2849 100.059 51.1993 99.9046 51.0334 99.7165C50.4208 99.0218 49.5688 98.4489 48.6695 98.2077C48.3493 98.1218 48.0359 98.0845 47.7061 98.0638C48.3232 98.6219 49.2554 100.065 49.3567 100.903C49.4297 101.506 48.6414 102.859 48.2891 103.36Z" fill="#09602F"/>
<path d="M57.221 106C57.5045 105.937 57.7849 105.824 58.0429 105.691C58.7021 105.351 59.3942 104.762 59.6272 104.035C59.5325 104.05 59.4347 104.092 59.3434 104.121C59.2137 104.164 59.0827 104.202 58.9508 104.237C58.5416 104.343 58.1327 104.393 57.7135 104.438C57.7061 104.507 57.6971 104.575 57.6863 104.642C57.6756 104.71 57.6632 104.778 57.6491 104.845C57.6351 104.912 57.6193 104.979 57.6019 105.046C57.5845 105.112 57.5655 105.178 57.5449 105.244C57.5242 105.309 57.502 105.374 57.478 105.438C57.4542 105.503 57.4287 105.567 57.4017 105.63C57.3746 105.693 57.346 105.755 57.3159 105.817C57.2858 105.879 57.2541 105.94 57.221 106Z" fill="white"/>
<path d="M52.9731 104.894C53.5045 104.841 54.0098 104.715 54.4984 104.498C54.7161 104.4 55.1304 104.191 55.302 104.046C55.1356 103.992 54.9742 103.925 54.8124 103.859C54.0631 103.554 53.4443 103.187 52.7621 102.76C52.6831 102.861 52.5901 102.946 52.49 103.024C52.7092 103.313 52.8966 103.533 53.0082 103.891C53.1002 104.187 53.1203 104.613 52.9731 104.894Z" fill="white"/>
<path d="M54.7032 98.416C54.9106 98.3319 55.1115 98.2378 55.322 98.1602C55.3946 98.1337 55.4676 98.1086 55.5412 98.0848C55.6147 98.061 55.6887 98.0387 55.7631 98.0176C55.8375 97.9967 55.9122 97.9772 55.9874 97.9589C56.0625 97.9408 56.1379 97.9241 56.2137 97.9087C56.2894 97.8933 56.3655 97.8794 56.4417 97.867C56.518 97.8545 56.5945 97.8435 56.6711 97.8339C56.7479 97.8243 56.8247 97.8161 56.9017 97.8094C56.9787 97.8027 57.0558 97.7975 57.1329 97.7936C57.7203 97.7459 58.3534 97.8163 58.927 97.9434C58.8621 97.8476 58.7839 97.7595 58.7096 97.6709C58.0382 96.8706 57.0155 96.2694 56.0096 96.0021C55.9924 95.9992 55.9732 95.9978 55.9589 96.0079C55.8777 96.0654 55.7216 96.3027 55.6529 96.3956C55.122 97.1134 54.8714 97.5262 54.7032 98.416Z" fill="white"/>
<path d="M48.2891 103.36C48.1322 103.583 47.9522 103.781 47.783 103.994C47.8423 104.004 47.9035 104.006 47.9636 104.006C48.9346 103.999 50.1728 103.212 50.8384 102.539C50.9205 102.454 50.9991 102.366 51.074 102.275C51.1372 102.197 51.199 102.104 51.2762 102.04C51.3784 101.956 51.5243 101.961 51.6481 101.979C51.718 101.99 51.7777 102.011 51.8395 102.045C52.0138 102.14 52.181 102.269 52.3472 102.379C52.6502 102.578 52.9565 102.772 53.2657 102.962C54.385 103.643 55.6956 104.212 57.0101 104.332C57.4279 104.37 57.8436 104.345 58.2575 104.283C59.7507 104.059 61.1082 103.312 62.2566 102.353C62.5335 102.122 63.5805 101.133 63.5998 100.83C63.606 100.733 63.5554 100.65 63.4946 100.579C63.4117 100.482 63.3112 100.395 63.2168 100.31C63.0073 100.118 62.789 99.9367 62.5617 99.7663C61.1451 98.6919 59.5911 98.0218 57.8051 97.8898C57.5346 97.8642 57.2409 97.8801 56.9702 97.903C55.5738 98.0209 54.4434 98.595 53.26 99.2955C53.0196 99.4391 52.7803 99.5847 52.5422 99.732C52.4035 99.8167 52.2584 99.9179 52.1087 99.9803C51.9461 100.048 51.7366 100.086 51.5611 100.076C51.2849 100.059 51.1993 99.9046 51.0334 99.7165C50.4208 99.0218 49.5688 98.4489 48.6695 98.2077C48.3493 98.1218 48.0359 98.0845 47.7061 98.0638C48.3232 98.6219 49.2554 100.065 49.3567 100.903C49.4297 101.506 48.6414 102.859 48.2891 103.36Z" fill="white"/>
<path d="M59.6788 100.506C59.6677 100.514 59.6617 100.523 59.6551 100.535C59.605 100.626 59.5758 100.733 59.5492 100.833C59.4565 101.183 59.4313 101.535 59.5388 101.885C59.6746 102.327 60.0147 102.671 60.4157 102.885C60.4281 102.892 60.4412 102.896 60.4543 102.901C60.4459 102.88 60.389 102.85 60.3671 102.834C60.2809 102.775 60.2008 102.708 60.127 102.633C60.0932 102.599 60.0607 102.563 60.0296 102.526C59.9984 102.489 59.9687 102.451 59.9403 102.412C59.912 102.373 59.8851 102.332 59.8597 102.291C59.8343 102.25 59.8105 102.208 59.7882 102.165C59.4988 101.607 59.4925 101.096 59.6788 100.506Z" fill="#09602F"/>
<path d="M61.4231 99.8469C61.3019 99.8487 61.187 99.874 61.0837 99.9398C60.9551 100.022 60.8571 100.156 60.8265 100.307C60.7975 100.449 60.8292 100.613 60.9113 100.733C61.0136 100.884 61.1611 100.943 61.3336 100.973C61.4837 100.98 61.6401 100.941 61.7591 100.846C61.868 100.759 61.9432 100.618 61.9572 100.48C61.9727 100.325 61.933 100.17 61.832 100.051C61.7255 99.9247 61.5863 99.8592 61.4231 99.8469Z" fill="#09602F"/>
<path d="M61.4181 100.121C61.4081 100.12 61.3981 100.12 61.3881 100.121C61.3781 100.121 61.3682 100.123 61.3583 100.124C61.3485 100.126 61.3388 100.129 61.3293 100.132C61.3197 100.135 61.3105 100.139 61.3015 100.143C61.245 100.171 61.2057 100.216 61.1876 100.276C61.1853 100.284 61.1834 100.292 61.1819 100.299C61.1804 100.307 61.1793 100.315 61.1785 100.323C61.1778 100.331 61.1775 100.338 61.1775 100.346C61.1776 100.354 61.178 100.362 61.1788 100.37C61.1797 100.378 61.1809 100.385 61.1825 100.393C61.1841 100.401 61.1861 100.408 61.1885 100.416C61.1908 100.423 61.1936 100.431 61.1967 100.438C61.1998 100.445 61.2032 100.452 61.207 100.459C61.2499 100.537 61.3102 100.564 61.3914 100.585C61.4441 100.584 61.4937 100.579 61.5395 100.551C61.5917 100.519 61.6279 100.469 61.6402 100.408C61.6418 100.401 61.6429 100.393 61.6437 100.385C61.6444 100.378 61.6448 100.37 61.6448 100.362C61.6448 100.354 61.6444 100.346 61.6436 100.339C61.6428 100.331 61.6417 100.323 61.6401 100.316C61.6386 100.308 61.6367 100.3 61.6344 100.293C61.6322 100.285 61.6295 100.278 61.6265 100.271C61.6235 100.264 61.6202 100.257 61.6165 100.25C61.6128 100.243 61.6088 100.236 61.6044 100.23C61.5577 100.161 61.4969 100.136 61.4181 100.121Z" fill="white"/>
<path fill-rule="evenodd" clip-rule="evenodd" d="M66.6961 76.0565C66.1377 75.7795 66.1461 75.7077 65.774 75.2864C65.3461 75.3295 64.1774 76.093 61.6078 75.7165C59.9062 75.4672 59.213 75.0929 57.4356 75.3118C56.7584 77.6116 57.3726 76.663 57.4235 78.3817C57.4516 79.3442 57.4019 80.7854 57.9663 81.4815C57.8497 81.8375 57.7806 81.6523 57.6672 82.2079C57.5987 82.5435 57.5478 82.8243 57.3892 83.0338L55.5969 83.0206C55.7627 82.4274 56.5207 82.063 56.6346 81.1686C56.7318 80.4029 56.5251 79.4531 56.1232 78.9733C55.7899 79.7577 55.7594 80.4847 55.7196 81.3986C55.2597 81.68 55.3852 81.4693 55.1922 82.0664C55.001 82.6584 54.6195 83.1717 53.526 83.1313C53.6973 82.6321 54.7367 80.6268 54.9385 79.6488C55.0811 78.9583 54.8506 78.1827 54.9811 77.4607C55.0955 76.8277 55.4471 76.281 55.3271 75.5695C53.5923 73.8822 53.5481 75.3788 52.3639 73.0369C51.8266 71.9749 50.6607 69.0681 49.3477 69.0289C48.975 69.0178 48.4388 68.8791 48.2165 68.8863C47.6056 68.9062 47.4464 69.742 46.2977 69.046C45.9815 68.8542 45.9494 68.967 45.7808 68.7165C45.5983 68.4462 45.6387 67.8883 45.6658 67.5622C46.1318 67.2952 47.1153 66.325 47.0744 65.5454C47.0434 64.9594 46.8013 64.6742 47.2143 64.1495C47.4857 63.804 47.9318 63.6354 48.0541 63.1821C47.588 62.7802 47.1955 62.6939 47.0252 62.0006C47.5217 62.1106 47.6046 62.2749 48.0529 62.4158C48.8164 62.6558 48.6041 62.4645 49.0541 62.2378C49.9912 61.7663 50.9034 62.5557 51.4097 62.4877C51.5037 62.2804 51.4346 62.3407 51.4706 62.2345L51.5972 61.9426C52.3324 62.3838 51.9565 62.8299 51.6829 63.2755C52.6277 63.856 55.2204 64.767 56.4825 64.8992C60.9174 65.8847 65.5529 65.2849 69.9573 64.4064C70.9828 64.2019 74.1251 65.3835 74.637 66.3067C75.05 66.9762 75.563 67.9431 75.7173 68.3677C75.9008 68.8707 75.9832 69.548 76.0821 70.1417C76.3315 71.646 76.1408 70.8886 76.6726 71.7256C76.9302 72.1308 76.8193 72.5636 76.9244 72.9965C76.6933 72.6951 76.413 72.1877 76.9252 73.223C76.9318 73.72 76.8364 73.9623 76.9249 74.5666C75.9727 73.9073 76.0705 73.3531 76.0705 73.8965C75.7615 73.3403 75.8875 73.6787 75.8051 72.9164L75.7559 73.7412C75.5856 73.3836 75.5962 73.3332 75.678 72.8976C75.7991 72.258 75.6703 72.5283 75.6172 72.0357C75.5719 71.609 75.7642 71.5232 75.8212 71.1844C75.987 70.2014 75.5099 68.643 74.9698 67.6606C74.9532 68.3644 74.6564 68.8387 74.5093 69.4866C74.4623 69.6945 74.941 75.2726 75.1368 75.7812C75.2805 76.1549 75.5464 76.2599 75.6205 76.7105C75.6498 76.8874 75.82 77.6741 75.8051 77.8416C75.1462 77.9174 74.3202 77.3888 73.6673 77.4938C73.6115 77.3733 73.5562 77.2545 73.5032 77.1373C73.2566 76.5938 73.0974 76.2129 72.7624 75.8105C72.4439 75.4279 72.1183 75.0487 71.9149 74.6092L71.4262 75.3124C70.9751 76.2102 72.13 76.198 71.78 77.8416C71.1691 77.9682 70.5615 78.1075 69.9573 78.2601C69.7616 77.8162 69.5178 77.3523 69.2442 76.758L69.0578 76.8769C68.8843 76.9665 69.1938 76.9421 68.7875 76.9853C68.6841 76.4993 68.6427 76.3213 68.2115 76.203C68.1468 76.5535 68.2132 76.6397 67.9555 76.8481L67.788 76.2533C67.5995 76.5806 67.7631 76.5562 67.558 76.9057C67.003 76.6254 67.7963 76.6022 66.6961 76.0565Z" fill="#09602F"/>
<path d="M57.4773 63.6647C56.5014 63.4156 55.4562 64.0406 54.5961 64.4426L54.8836 64.9356L56.7487 65.3187L59.4455 65.4387C59.1295 65.0844 58.4532 63.9138 57.4773 63.6647Z" fill="#09602F"/>
</svg>
