<svg width="48" height="48" viewBox="0 0 48 48" fill="none" xmlns="http://www.w3.org/2000/svg">
<path d="M23.7992 44.0001L32.8992 20.0001H37.0992L46.1992 44.0001H41.9992L39.8492 37.9001H30.1492L27.9992 44.0001H23.7992ZM31.3992 34.4001H38.5992L34.9992 24.2001L31.3992 34.4001ZM12.6992 32.0001C10.4992 32.0001 8.44089 31.3585 6.52422 30.0751C4.60755 28.7918 3.16589 27.0668 2.19922 24.9001L5.79922 23.1001C6.49922 24.5001 7.46589 25.6668 8.69922 26.6001C9.93255 27.5335 11.2492 28.0001 12.6492 28.0001C13.9159 28.0001 14.9576 27.6085 15.7742 26.8251C16.5909 26.0418 16.9992 25.1001 16.9992 24.0001C16.9992 22.9001 16.6076 21.9585 15.8242 21.1751C15.0409 20.3918 14.0992 20.0001 12.9992 20.0001H9.99922V16.0001H12.9992C13.8326 16.0001 14.5409 15.7085 15.1242 15.1251C15.7076 14.5418 15.9992 13.8335 15.9992 13.0001C15.9992 12.1668 15.7159 11.4585 15.1492 10.8751C14.5826 10.2918 13.8826 10.0001 13.0492 10.0001C12.2826 10.0001 11.5992 10.2501 10.9992 10.7501C10.3992 11.2501 9.86589 11.8001 9.39922 12.4001L6.24922 9.95012C7.11589 8.88346 8.11589 7.95846 9.24922 7.17512C10.3826 6.39179 11.6659 6.00012 13.0992 6.00012C14.9992 6.00012 16.6242 6.67512 17.9742 8.02512C19.3242 9.37512 19.9992 11.0168 19.9992 12.9501C19.9992 13.8501 19.8326 14.7251 19.4992 15.5751C19.1659 16.4251 18.6826 17.1835 18.0492 17.8501C18.3826 18.1835 18.6909 18.5251 18.9742 18.8751C19.2576 19.2251 19.5326 19.6001 19.7992 20.0001H25.9992V10.0001H21.9992V6.00012H33.9992V10.0001H29.9992V15.8001L26.9492 24.0001H20.9992V24.2001C20.9992 26.3001 20.2326 28.1251 18.6992 29.6751C17.1659 31.2251 15.1659 32.0001 12.6992 32.0001Z" fill="#F65151"/>
</svg>
