<svg width="20" height="20" viewBox="0 0 20 20" fill="none" xmlns="http://www.w3.org/2000/svg">
<path d="M9.6 11.2C8.93333 11.2 8.36667 10.9666 7.9 10.5C7.43333 10.0333 7.2 9.46664 7.2 8.79998V3.99998C7.2 3.33331 7.43333 2.76664 7.9 2.29998C8.36667 1.83331 8.93333 1.59998 9.6 1.59998C10.2667 1.59998 10.8333 1.83331 11.3 2.29998C11.7667 2.76664 12 3.33331 12 3.99998V8.79998C12 9.46664 11.7667 10.0333 11.3 10.5C10.8333 10.9666 10.2667 11.2 9.6 11.2ZM8.8 16.8V14.34C7.41333 14.1533 6.26667 13.5333 5.36 12.48C4.45333 11.4266 4 10.2 4 8.79998H5.6C5.6 9.90664 5.99 10.85 6.77 11.63C7.55 12.41 8.49333 12.8 9.6 12.8C10.7067 12.8 11.65 12.41 12.43 11.63C13.21 10.85 13.6 9.90664 13.6 8.79998H15.2C15.2 10.2 14.7467 11.4266 13.84 12.48C12.9333 13.5333 11.7867 14.1533 10.4 14.34V16.8H8.8Z" fill="#414141"/>
</svg>
