<svg width="17" height="17" viewBox="0 0 17 17" fill="none" xmlns="http://www.w3.org/2000/svg">
<path d="M8.49992 16.4998C12.9182 16.4998 16.4998 12.9182 16.4998 8.49992C16.4998 4.08169 12.9182 0.5 8.49992 0.5C4.08169 0.5 0.5 4.08169 0.5 8.49992C0.5 12.9182 4.08169 16.4998 8.49992 16.4998Z" fill="#F8F8F8" stroke="#F65151" stroke-miterlimit="10"/>
<path fill-rule="evenodd" clip-rule="evenodd" d="M14.6436 13.6228C13.1771 15.3821 10.9698 16.4997 8.49988 16.4997C6.02992 16.4997 3.82267 15.3821 2.3562 13.6228C3.48889 11.3811 5.81458 9.8457 8.49988 9.8457C11.1852 9.8457 13.5109 11.3811 14.6436 13.6228Z" fill="#FFE2E2" stroke="#F65151" stroke-miterlimit="10"/>
<path d="M10.7038 8.93234C11.9206 7.71547 11.9206 5.74254 10.7038 4.52567C9.48688 3.3088 7.51395 3.3088 6.29708 4.52567C5.08022 5.74254 5.08022 7.71547 6.29708 8.93234C7.51395 10.1492 9.48688 10.1492 10.7038 8.93234Z" fill="#FFE2E2" stroke="#F65151" stroke-miterlimit="10"/>
</svg>
